<svg xml:space="preserve" xmlns="http://www.w3.org/2000/svg" viewBox="0 0 300 300"><path style="fill:#fff;stroke-width:2.67388" d="M150 0A150.00092 149.99831 0 0 0 4e-8 150.00261 150.00092 149.99831 0 0 0 150 300a150.00092 149.99831 0 0 0 150-149.99739A150.00092 149.99831 0 0 0 150 0Zm-36.08208 94.796765c15.19083-.411567 29.82347 5.750265 41.36723 15.411255-5.05102 5.55361-10.18834 11.0398-15.67788 16.17896-10.84002-6.58573-23.89359-11.60156-36.56256-7.14423-20.434015 5.81832-32.807275 29.94145-25.245461 49.93124 6.262293 20.87752 31.654401 32.33368 51.556311 23.56341 10.30523-3.68993 17.09901-13.19513 20.08042-23.41196-11.81067-.23529-23.62386-.0864-35.43451-.41257-.0294-7.02691-.0608-14.02975-.0313-21.05666 19.696-.0294 39.42436-.0877 59.14979.0888 1.21126 17.217-1.33053 35.64271-12.52352 49.46122-15.32684 19.72509-43.64486 25.51517-66.680588 17.77701-24.447545-8.02961-42.223147-32.66173-41.691038-58.46984-1.211281-31.89115 26.724629-61.361913 58.648426-61.744275 1.01692-.08674 2.03197-.144897 3.04472-.17233zm97.59242 35.339885h17.56842c.0321 5.87715.088 11.78242.12011 17.65689 5.87458.0588 11.77994.0907 17.65719.12011v17.59945c-5.87458.0294-11.77994.0594-17.65719.0888-.0588 5.90656-.088 11.78166-.12011 17.68822-5.87459-.0294-11.75458 0-17.59975 0-.0562-5.90656-.0534-11.78497-.1149-17.66211-5.87457-.0615-11.78517-.088-17.66242-.12011v-17.59945c5.87725-.0294 11.75843-.0561 17.66242-.11489.0294-5.8718.0847-11.77974.14624-17.65689z"/></svg>