<svg xml:space="preserve" xmlns="http://www.w3.org/2000/svg" viewBox="0 0 300 300"><path style="fill:#fff;stroke-width:1.0298" d="M149.99899 0C67.152516 0 0 67.163796 0 150.00101 0 232.83822 67.163796 300 150.00101 300 232.83822 300 300 232.83925 300 150.00101 300 67.162766 232.8362 0 149.99899 0ZM98.223324 65.605578H201.76863c17.99063 0 32.62476 14.636387 32.62579 32.617746V201.77868c0 17.98136-14.62511 32.61574-32.61574 32.61574H98.223324c-17.981359 0-32.617746-14.62511-32.617746-32.61574V98.223324c0-17.981359 14.627119-32.617746 32.617746-32.617746zM215.73732 84.469847l-3.69281.008-24.61868.08447.0945 28.013813 28.21696-.0945zm-65.73631 37.292073c-23.40944 0-28.24738 21.97564-28.23708 28.24713 0 15.55309 12.66546 28.22701 28.23708 28.22701 15.56236 0 28.23707-12.67392 28.23707-28.22701 0-6.27149-4.82763-28.24713-28.23707-28.24713zm-66.217027 9.45125v68.52201c0 8.92528 7.255867 16.17109 16.181152 16.17109h99.751935c8.93456 0 16.18116-7.25507 16.18116-16.17109h-.0201v-68.52201h-23.15645c2.16568 5.35291 3.39312 12.66645 3.39312 18.79789 0 25.44433-20.68834 46.15199-46.14193 46.15199-25.4536 0-46.15401-20.70766-46.15401-46.15199 0-6.13144 1.22824-13.44498 3.40318-18.79789z"/></svg>