<?xml version="1.0" standalone="no"?>
<!DOCTYPE svg PUBLIC "-//W3C//DTD SVG 20010904//EN"
 "http://www.w3.org/TR/2001/REC-SVG-20010904/DTD/svg10.dtd">
<svg version="1.0" xmlns="http://www.w3.org/2000/svg"
 width="72.000000pt" height="72.000000pt" viewBox="0 0 72.000000 72.000000"
 preserveAspectRatio="xMidYMid meet">
<metadata>
Created by potrace 1.14, written by Peter Selinger 2001-2017
</metadata>
<g transform="translate(0.000000,72.000000) scale(0.100000,-0.100000)"
fill="#000000" stroke="none">
<path d="M112 590 c-29 -32 -16 -94 15 -68 15 12 178 17 189 5 6 -6 -46 -147
-86 -231 -16 -36 -42 -77 -58 -91 -23 -23 -33 -26 -74 -21 l-48 5 0 -34 c0
-37 20 -55 62 -55 65 0 115 69 179 250 l37 105 -3 -65 c-2 -36 -7 -108 -10
-160 -8 -110 -8 -102 -6 -117 2 -19 46 -16 63 5 8 9 31 57 51 107 68 169 84
205 92 213 5 4 6 3 3 -3 -5 -9 -10 -35 -23 -138 -2 -15 -7 -47 -11 -70 -7 -45
-7 -95 2 -108 2 -5 20 -11 38 -15 27 -4 42 0 75 21 52 35 53 49 1 40 -48 -8
-50 -2 -35 100 3 28 9 66 11 85 8 65 22 161 30 202 5 27 -43 36 -66 12 -10
-11 -44 -80 -75 -154 -91 -214 -86 -208 -80 -120 2 41 7 113 11 160 3 47 10
89 15 94 20 22 8 32 -34 30 -23 -1 -67 5 -97 13 -30 8 -76 17 -101 20 -39 4
-50 1 -67 -17z"/>
</g>
</svg>
